<svg width="40" height="40" viewBox="0 0 40 40" fill="none" xmlns="http://www.w3.org/2000/svg"><g clip-path="url(#clip0_4220_2674)"><path fill="#fff" d="M0 0h40v40H0z"/><path fill="#EDEDED" d="M0 0h40v40H0z"/><path fill-rule="evenodd" clip-rule="evenodd" d="M11.5 29a1 1 0 0 1-1-1v-.684c0-.686.498-1.484 1.114-1.785l5.66-2.762c.821-.4 1.012-1.288.42-1.99l-.362-.429c-.736-.872-1.332-2.5-1.332-3.64V15c0-2.21 1.795-4 4-4 2.21 0 4 1.793 4 4v1.71c0 1.14-.6 2.773-1.332 3.642l-.361.428c-.59.699-.406 1.588.419 1.99l5.66 2.762c.615.3 1.114 1.093 1.114 1.784V28a1 1 0 0 1-1 1h-17z" fill="#000" fill-opacity=".9" opacity=".2"/></g><defs><clipPath id="clip0_4220_2674"><path fill="#fff" d="M0 0h40v40H0z"/></clipPath></defs></svg>